<?xml version="1.0" standalone="no"?>
<!DOCTYPE svg PUBLIC "-//W3C//DTD SVG 20010904//EN"
 "http://www.w3.org/TR/2001/REC-SVG-20010904/DTD/svg10.dtd">
<svg version="1.0" xmlns="http://www.w3.org/2000/svg"
 width="1680.000000pt" height="1680.000000pt" viewBox="0 0 1680.000000 1680.000000"
 preserveAspectRatio="xMidYMid meet">
<metadata>
Created by potrace 1.14, written by Peter Selinger 2001-2017
</metadata>
<g transform="translate(0.000000,1680.000000) scale(0.100000,-0.100000)"
fill="#000000" stroke="none">
<path d="M8068 16795 c-1 -1 -64 -5 -138 -9 -74 -4 -153 -8 -175 -11 -22 -2
-74 -6 -115 -9 -41 -4 -91 -8 -110 -11 -19 -2 -60 -7 -90 -10 -77 -8 -141 -16
-170 -21 -34 -6 -76 -12 -128 -18 -51 -7 -198 -31 -302 -51 -41 -8 -86 -17
-100 -19 -82 -14 -422 -96 -589 -142 -1101 -306 -2123 -831 -3017 -1550 -621
-499 -1181 -1102 -1641 -1764 -94 -135 -270 -406 -286 -440 -4 -8 -16 -28 -26
-45 -99 -158 -305 -548 -426 -810 -249 -536 -481 -1253 -591 -1830 -2 -11 -6
-31 -9 -45 -3 -14 -19 -101 -35 -195 -25 -153 -33 -201 -46 -300 -2 -16 -6
-46 -9 -65 -2 -19 -7 -57 -10 -85 -3 -27 -7 -66 -10 -85 -3 -31 -11 -118 -20
-230 -26 -315 -26 -1027 0 -1295 5 -59 16 -173 20 -225 2 -25 6 -63 8 -85 8
-54 20 -146 22 -165 6 -56 24 -177 30 -210 3 -14 7 -41 10 -60 31 -203 120
-609 177 -810 16 -58 34 -118 38 -135 5 -16 14 -48 20 -70 13 -47 98 -313 107
-335 3 -8 7 -19 9 -25 13 -51 174 -462 220 -563 13 -29 24 -54 24 -56 0 -19
224 -474 315 -639 68 -125 275 -475 296 -501 5 -6 50 -74 101 -151 51 -77 105
-156 119 -175 157 -214 209 -283 300 -396 89 -111 166 -204 214 -258 313 -352
560 -598 850 -849 17 -14 44 -37 60 -52 115 -101 485 -387 612 -473 168 -114
314 -211 363 -241 275 -170 491 -291 735 -411 158 -77 333 -160 341 -160 2 0
27 -11 56 -24 218 -100 607 -240 971 -351 162 -49 553 -143 747 -180 14 -3 48
-9 75 -15 28 -5 64 -12 80 -14 17 -3 71 -12 120 -20 50 -8 108 -17 130 -20 22
-3 72 -10 110 -15 39 -6 102 -13 140 -16 39 -3 79 -8 90 -10 11 -2 58 -7 105
-10 47 -4 101 -8 120 -11 225 -26 981 -25 1290 1 19 1 69 6 110 9 41 4 91 8
110 11 19 2 60 7 90 10 134 15 311 39 370 50 14 3 41 7 60 10 29 5 109 19 230
42 524 98 1253 323 1700 526 19 8 57 25 84 36 553 237 1293 681 1772 1065 28
23 68 55 90 71 21 17 57 46 79 65 23 19 68 58 101 85 32 28 81 70 109 95 27
25 70 63 94 85 160 142 431 415 596 599 102 113 108 120 135 152 84 96 329
404 370 464 8 12 36 51 62 85 98 131 347 510 409 622 8 15 40 71 71 123 196
332 419 807 571 1210 161 428 291 884 373 1305 2 11 6 31 9 45 5 23 14 69 30
160 3 19 10 60 15 90 5 30 14 87 19 125 6 39 13 86 15 105 3 19 8 58 11 85 3
28 7 64 10 80 2 17 7 56 10 88 3 31 7 81 10 110 23 238 29 414 29 772 0 291
-6 514 -19 640 -2 22 -7 74 -10 115 -9 99 -12 135 -19 195 -4 28 -9 70 -11 95
-3 25 -8 59 -10 75 -3 17 -7 46 -9 65 -3 19 -8 53 -11 75 -6 43 -42 254 -50
295 -3 14 -9 48 -15 75 -66 342 -194 817 -298 1105 -3 8 -6 20 -7 25 -6 24
-73 201 -135 356 -218 546 -496 1070 -828 1564 -63 93 -123 181 -134 195 -10
14 -71 95 -135 180 -106 142 -305 387 -393 484 -139 156 -227 250 -366 390
-82 83 -264 256 -343 326 -41 36 -79 70 -85 76 -6 5 -79 66 -162 135 -260 215
-434 345 -704 524 -728 483 -1460 823 -2325 1079 -49 14 -99 28 -110 30 -11 3
-64 16 -118 31 -54 15 -107 28 -118 31 -10 2 -28 6 -40 9 -11 2 -28 6 -37 9
-9 3 -28 7 -42 10 -14 3 -81 16 -150 31 -177 36 -408 77 -515 90 -27 3 -57 8
-65 10 -8 2 -46 7 -85 10 -38 4 -72 8 -75 10 -3 1 -43 6 -90 10 -47 3 -101 8
-120 10 -19 2 -80 7 -135 10 -55 4 -116 9 -135 12 -40 5 -817 13 -822 8z"/>
</g>
</svg>
