<svg width="272" height="57" viewBox="0 0 272 57" fill="none" xmlns="http://www.w3.org/2000/svg">
<path d="M3.312 2.97995C3.336 2.78796 3.408 2.65596 3.528 2.58396C3.672 2.48796 3.804 2.43996 3.924 2.43996C5.556 2.43996 7.08 2.39196 8.496 2.29596C9.936 2.17596 11.064 2.11596 11.88 2.11596C13.92 2.11596 15.624 2.31996 16.992 2.72796C18.384 3.13595 19.5 3.77195 20.34 4.63595C21.204 5.49996 21.816 6.61596 22.176 7.98396C22.536 9.35196 22.716 10.996 22.716 12.916C22.716 14.86 22.512 16.768 22.104 18.64C21.72 20.488 21.036 22.132 20.052 23.572C19.068 25.012 17.736 26.176 16.056 27.064C14.4 27.928 12.3 28.36 9.756 28.36C8.58 28.36 7.5 28.336 6.516 28.288C5.556 28.24 4.728 28.096 4.032 27.856C3.336 27.616 2.796 27.256 2.412 26.776C2.028 26.296 1.836 25.636 1.836 24.796C1.836 24.484 1.848 24.016 1.872 23.392C1.92 22.768 1.968 22.024 2.016 21.16C2.088 20.296 2.16 19.348 2.232 18.316C2.328 17.26 2.424 16.156 2.52 15.004C2.712 12.628 2.856 10.732 2.952 9.31596C3.072 7.89996 3.144 6.79596 3.168 6.00396C3.216 5.18796 3.24 4.57595 3.24 4.16795C3.264 3.75996 3.288 3.36396 3.312 2.97995ZM10.008 22.672C11.352 22.672 12.42 22.384 13.212 21.808C14.028 21.232 14.652 20.5 15.084 19.612C15.516 18.724 15.804 17.752 15.948 16.696C16.092 15.64 16.164 14.644 16.164 13.708C16.164 12.7 16.092 11.824 15.948 11.08C15.828 10.312 15.6 9.67596 15.264 9.17196C14.952 8.66796 14.508 8.29596 13.932 8.05596C13.356 7.79196 12.636 7.65996 11.772 7.65996C11.508 7.65996 11.172 7.67196 10.764 7.69596C10.356 7.71996 9.864 7.75596 9.288 7.80396C9.24 8.69196 9.18 9.74796 9.108 10.972C9.036 12.172 8.952 13.444 8.856 14.788C8.784 16.108 8.7 17.452 8.604 18.82C8.508 20.164 8.412 21.412 8.316 22.564C8.676 22.612 9 22.648 9.288 22.672C9.576 22.672 9.816 22.672 10.008 22.672Z" fill="white"/>
<path d="M28.9806 28C28.2366 28 27.6246 27.928 27.1446 27.784C26.6886 27.616 26.3166 27.388 26.0286 27.1C25.7646 26.812 25.5726 26.464 25.4526 26.056C25.3566 25.624 25.3086 25.132 25.3086 24.58C25.3086 24.22 25.3206 23.716 25.3446 23.068C25.3926 22.396 25.4646 21.484 25.5606 20.332C25.6566 19.156 25.7646 17.68 25.8846 15.904C26.0286 14.104 26.1966 11.884 26.3886 9.24396C26.4126 8.71596 26.4726 8.40396 26.5686 8.30796C26.6406 8.23596 26.8326 8.19996 27.1446 8.19996H28.5486C29.2926 8.19996 29.8926 8.27196 30.3486 8.41596C30.8286 8.55996 31.2006 8.77596 31.4646 9.06396C31.7526 9.35196 31.9446 9.69996 32.0406 10.108C32.1606 10.516 32.2206 10.972 32.2206 11.476C32.2206 11.836 32.1966 12.376 32.1486 13.096C32.1006 13.816 32.0286 14.8 31.9326 16.048C31.8606 17.272 31.7526 18.808 31.6086 20.656C31.4646 22.48 31.2846 24.688 31.0686 27.28C31.0446 27.568 30.9846 27.76 30.8886 27.856C30.7926 27.952 30.5886 28 30.2766 28H28.9806ZM26.4246 3.95196C26.4246 2.99196 26.7726 2.23596 27.4686 1.68396C28.1646 1.13196 29.1006 0.855957 30.2766 0.855957C31.3086 0.855957 32.0526 1.07196 32.5086 1.50395C32.9886 1.91196 33.2286 2.46396 33.2286 3.15996C33.2286 4.04796 32.8926 4.79196 32.2206 5.39196C31.5726 5.96796 30.6126 6.25596 29.3406 6.25596C27.3966 6.25596 26.4246 5.48796 26.4246 3.95196Z" fill="white"/>
<path d="M34.1376 23.572C34.1376 21.412 35.1096 19.72 37.0536 18.496C38.9976 17.272 41.8656 16.612 45.6576 16.516C45.6816 16.252 45.6936 16.036 45.6936 15.868C45.7176 15.676 45.7296 15.448 45.7296 15.184C45.7296 14.416 45.5856 13.804 45.2976 13.348C45.0096 12.892 44.4096 12.664 43.4976 12.664C42.9936 12.664 42.5856 12.736 42.2736 12.88C41.9616 13.024 41.7096 13.228 41.5176 13.492C41.3256 13.732 41.1696 14.032 41.0496 14.392C40.9296 14.752 40.8216 15.148 40.7256 15.58C40.6776 15.796 40.5696 15.94 40.4016 16.012C40.2336 16.06 39.9696 16.084 39.6096 16.084C37.1616 16.084 35.9376 15.16 35.9376 13.312C35.9376 12.568 36.1056 11.86 36.4416 11.188C36.8016 10.516 37.3176 9.93996 37.9896 9.45996C38.6856 8.95596 39.5496 8.55996 40.5816 8.27196C41.6136 7.98396 42.8136 7.83996 44.1816 7.83996C46.8456 7.83996 48.7776 8.39196 49.9776 9.49596C51.1776 10.6 51.7776 12.16 51.7776 14.176C51.7776 14.44 51.7416 14.92 51.6696 15.616C51.6216 16.288 51.5496 17.008 51.4536 17.776C51.3816 18.52 51.3096 19.228 51.2376 19.9C51.1896 20.572 51.1656 21.04 51.1656 21.304C51.1656 21.904 51.2736 22.336 51.4896 22.6C51.7056 22.84 51.9456 23.008 52.2096 23.104C52.4976 23.2 52.7496 23.272 52.9656 23.32C53.1816 23.368 53.2896 23.488 53.2896 23.68C53.2896 24.208 53.2176 24.748 53.0736 25.3C52.9296 25.852 52.6896 26.356 52.3536 26.812C52.0416 27.268 51.5976 27.64 51.0216 27.928C50.4696 28.216 49.7856 28.36 48.9696 28.36C47.8176 28.36 46.9536 28.084 46.3776 27.532C45.8016 26.98 45.4176 26.212 45.2256 25.228C44.6496 26.068 43.8936 26.8 42.9576 27.424C42.0456 28.048 40.8456 28.36 39.3576 28.36C38.6376 28.36 37.9536 28.276 37.3056 28.108C36.6816 27.94 36.1296 27.664 35.6496 27.28C35.1936 26.896 34.8216 26.404 34.5336 25.804C34.2696 25.18 34.1376 24.436 34.1376 23.572ZM45.3336 19.468C44.7096 19.468 44.0976 19.516 43.4976 19.612C42.8976 19.708 42.3576 19.864 41.8776 20.08C41.4216 20.272 41.0496 20.536 40.7616 20.872C40.4736 21.208 40.3296 21.616 40.3296 22.096C40.3296 22.648 40.4976 23.032 40.8336 23.248C41.1936 23.464 41.5776 23.572 41.9856 23.572C42.3696 23.572 42.7536 23.488 43.1376 23.32C43.5216 23.152 43.8576 22.9 44.1456 22.564C44.4576 22.204 44.7216 21.772 44.9376 21.268C45.1536 20.764 45.2856 20.164 45.3336 19.468Z" fill="white"/>
<path d="M59.4987 28.324C58.0107 28.324 56.9427 27.928 56.2947 27.136C55.6467 26.344 55.3227 25.036 55.3227 23.212C55.3227 22.924 55.3347 22.564 55.3587 22.132C55.4067 21.7 55.4547 21.148 55.5027 20.476C55.5747 19.78 55.6587 18.928 55.7547 17.92C55.8507 16.912 55.9467 15.688 56.0427 14.248C56.1627 12.808 56.2827 11.116 56.4027 9.17196C56.5467 7.22796 56.6907 4.97196 56.8347 2.40396C56.8587 1.87596 56.9187 1.56396 57.0147 1.46796C57.0867 1.39596 57.2787 1.35996 57.5907 1.35996H58.9947C59.7147 1.35996 60.3147 1.44396 60.7947 1.61196C61.2747 1.77996 61.6587 2.00796 61.9467 2.29596C62.2347 2.58396 62.4387 2.91996 62.5587 3.30396C62.6787 3.66396 62.7387 4.04796 62.7387 4.45596C62.7387 4.93596 62.7027 5.63196 62.6307 6.54396C62.5827 7.43196 62.5107 8.43996 62.4147 9.56796C62.3187 10.696 62.2227 11.872 62.1267 13.096C62.0307 14.32 61.9347 15.496 61.8387 16.624C61.7427 17.728 61.6587 18.724 61.5867 19.612C61.5387 20.5 61.5147 21.172 61.5147 21.628C61.5147 22.252 61.6227 22.696 61.8387 22.96C62.0787 23.224 62.3307 23.416 62.5947 23.536C62.8587 23.632 63.0987 23.704 63.3147 23.752C63.5547 23.776 63.6747 23.848 63.6747 23.968C63.6747 24.496 63.6147 25.024 63.4947 25.552C63.3747 26.056 63.1587 26.524 62.8467 26.956C62.5347 27.364 62.1027 27.7 61.5507 27.964C61.0227 28.204 60.3387 28.324 59.4987 28.324Z" fill="white"/>
<path d="M74.07 28.36C72.414 28.36 71.034 28.132 69.93 27.676C68.85 27.196 67.986 26.548 67.338 25.732C66.69 24.916 66.234 23.968 65.97 22.888C65.706 21.784 65.574 20.608 65.574 19.36C65.574 17.92 65.742 16.516 66.078 15.148C66.438 13.756 67.038 12.52 67.878 11.44C68.718 10.36 69.822 9.49596 71.19 8.84796C72.582 8.17596 74.31 7.83996 76.374 7.83996C79.398 7.83996 81.558 8.58396 82.854 10.072C84.174 11.536 84.834 13.6 84.834 16.264C84.834 17.008 84.774 17.836 84.654 18.748C84.558 19.636 84.354 20.524 84.042 21.412C83.754 22.3 83.346 23.164 82.818 24.004C82.314 24.844 81.666 25.588 80.874 26.236C80.082 26.884 79.122 27.4 77.994 27.784C76.89 28.168 75.582 28.36 74.07 28.36ZM75.762 12.628C74.85 12.628 74.118 12.868 73.566 13.348C73.038 13.804 72.63 14.368 72.342 15.04C72.078 15.688 71.898 16.384 71.802 17.128C71.73 17.848 71.694 18.46 71.694 18.964C71.694 20.548 71.946 21.712 72.45 22.456C72.954 23.2 73.674 23.572 74.61 23.572C75.45 23.572 76.134 23.308 76.662 22.78C77.214 22.252 77.634 21.616 77.922 20.872C78.234 20.128 78.438 19.348 78.534 18.532C78.654 17.716 78.714 17.032 78.714 16.48C78.714 15.28 78.486 14.344 78.03 13.672C77.598 12.976 76.842 12.628 75.762 12.628Z" fill="white"/>
<path d="M99.1136 23.752C98.5136 24.832 97.7816 25.636 96.9176 26.164C96.0536 26.668 94.9736 26.92 93.6776 26.92C92.6936 26.92 91.7936 26.764 90.9776 26.452C90.1616 26.14 89.4656 25.648 88.8896 24.976C88.3136 24.304 87.8576 23.464 87.5216 22.456C87.2096 21.424 87.0536 20.2 87.0536 18.784C87.0536 17.632 87.1736 16.42 87.4136 15.148C87.6536 13.852 88.0856 12.664 88.7096 11.584C89.3576 10.504 90.2336 9.61595 91.3376 8.91996C92.4416 8.19996 93.8576 7.83996 95.5856 7.83996C96.3056 7.83996 96.9176 7.92396 97.4216 8.09196C97.9496 8.23596 98.3936 8.43995 98.7536 8.70396C99.1376 8.96796 99.4376 9.27995 99.6536 9.63995C99.8936 9.99995 100.074 10.384 100.194 10.792C100.194 10.816 100.194 10.732 100.194 10.54C100.218 10.324 100.242 10.084 100.266 9.81996C100.29 9.55596 100.302 9.30396 100.302 9.06396C100.326 8.79996 100.338 8.63196 100.338 8.55996C100.362 8.31996 100.518 8.19996 100.806 8.19996H102.462C103.71 8.19996 104.61 8.46396 105.162 8.99196C105.738 9.49596 106.026 10.468 106.026 11.908C106.026 12.1 106.014 12.544 105.99 13.24C105.966 13.912 105.918 14.728 105.846 15.688C105.798 16.648 105.726 17.716 105.63 18.892C105.534 20.044 105.426 21.208 105.306 22.384C105.186 23.56 105.054 24.688 104.91 25.768C104.766 26.848 104.61 27.796 104.442 28.612C104.274 29.428 103.986 30.22 103.578 30.988C103.17 31.756 102.594 32.44 101.85 33.04C101.106 33.64 100.146 34.12 98.9696 34.48C97.8176 34.84 96.4016 35.02 94.7216 35.02C93.4496 35.02 92.3336 34.9 91.3736 34.66C90.4376 34.42 89.6576 34.096 89.0336 33.688C88.4096 33.304 87.9296 32.86 87.5936 32.356C87.2816 31.852 87.1256 31.348 87.1256 30.844C87.1256 30.388 87.2216 29.992 87.4136 29.656C87.6056 29.32 87.8576 29.044 88.1696 28.828C88.4816 28.612 88.8176 28.444 89.1776 28.324C89.5616 28.228 89.9216 28.18 90.2576 28.18C90.6656 28.18 90.9656 28.3 91.1576 28.54C91.3496 28.78 91.5656 29.044 91.8056 29.332C92.0456 29.644 92.3816 29.92 92.8136 30.16C93.2456 30.4 93.9176 30.52 94.8296 30.52C96.4136 30.52 97.5176 29.932 98.1416 28.756C98.7896 27.604 99.1136 25.936 99.1136 23.752ZM96.0896 22.132C96.9536 22.132 97.6256 21.928 98.1056 21.52C98.6096 21.112 98.9936 20.62 99.2576 20.044C99.5216 19.468 99.6896 18.868 99.7616 18.244C99.8336 17.62 99.8696 17.08 99.8696 16.624C99.8696 15.184 99.6416 14.164 99.1856 13.564C98.7536 12.94 98.0936 12.628 97.2056 12.628C96.3176 12.628 95.6216 12.868 95.1176 13.348C94.6136 13.828 94.2296 14.404 93.9656 15.076C93.7256 15.724 93.5696 16.384 93.4976 17.056C93.4256 17.704 93.3896 18.208 93.3896 18.568C93.3896 19.768 93.5936 20.668 94.0016 21.268C94.4096 21.844 95.1056 22.132 96.0896 22.132Z" fill="white"/>
<path d="M115.905 11.26C115.905 11.764 115.857 12.472 115.761 13.384C115.689 14.296 115.605 15.244 115.509 16.228C115.437 17.212 115.353 18.136 115.257 19C115.185 19.864 115.149 20.488 115.149 20.872C115.149 21.712 115.353 22.372 115.761 22.852C116.193 23.308 116.781 23.536 117.525 23.536C118.173 23.536 118.713 23.284 119.145 22.78C119.601 22.252 119.961 21.58 120.225 20.764C120.513 19.924 120.741 18.976 120.909 17.92C121.077 16.864 121.197 15.796 121.269 14.716C121.365 13.636 121.437 12.592 121.485 11.584C121.557 10.552 121.629 9.66396 121.701 8.91996C121.725 8.72795 121.797 8.55996 121.917 8.41596C122.037 8.27196 122.229 8.19996 122.493 8.19996H123.789C124.533 8.19996 125.133 8.28396 125.589 8.45195C126.069 8.59596 126.441 8.81196 126.705 9.09996C126.993 9.38796 127.185 9.74796 127.281 10.18C127.401 10.588 127.461 11.068 127.461 11.62C127.461 11.98 127.437 12.496 127.389 13.168C127.365 13.816 127.305 14.728 127.209 15.904C127.113 17.056 126.993 18.532 126.849 20.332C126.729 22.108 126.573 24.316 126.381 26.956C126.333 27.46 126.273 27.76 126.201 27.856C126.153 27.952 125.961 28 125.625 28H124.221C123.501 28 122.901 27.916 122.421 27.748C121.965 27.58 121.593 27.364 121.305 27.1C121.017 26.836 120.813 26.524 120.693 26.164C120.573 25.804 120.501 25.432 120.477 25.048C120.117 25.672 119.709 26.2 119.253 26.632C118.821 27.064 118.365 27.412 117.885 27.676C117.405 27.916 116.913 28.084 116.409 28.18C115.905 28.3 115.413 28.36 114.933 28.36C114.021 28.36 113.205 28.216 112.485 27.928C111.765 27.616 111.153 27.208 110.649 26.704C110.169 26.2 109.797 25.6 109.533 24.904C109.269 24.208 109.137 23.464 109.137 22.672C109.137 22.36 109.149 21.856 109.173 21.16C109.221 20.44 109.269 19.636 109.317 18.748C109.389 17.86 109.461 16.924 109.533 15.94C109.605 14.932 109.665 13.984 109.713 13.096C109.785 12.208 109.845 11.428 109.893 10.756C109.965 10.084 110.013 9.60396 110.037 9.31596C110.085 8.88396 110.181 8.59596 110.325 8.45195C110.469 8.28396 110.709 8.19996 111.045 8.19996H112.197C112.941 8.19996 113.553 8.27196 114.033 8.41596C114.513 8.55996 114.885 8.76396 115.149 9.02796C115.437 9.29196 115.629 9.61596 115.725 9.99996C115.845 10.36 115.905 10.78 115.905 11.26Z" fill="white"/>
<path d="M138.751 28.36C137.695 28.36 136.639 28.228 135.583 27.964C134.551 27.7 133.615 27.244 132.775 26.596C131.959 25.948 131.287 25.084 130.759 24.004C130.231 22.924 129.967 21.568 129.967 19.936C129.967 19.336 130.015 18.616 130.111 17.776C130.207 16.936 130.387 16.072 130.651 15.184C130.939 14.296 131.323 13.42 131.803 12.556C132.307 11.668 132.955 10.876 133.747 10.18C134.539 9.48396 135.499 8.91996 136.627 8.48796C137.755 8.05596 139.099 7.83996 140.659 7.83996C141.907 7.83996 142.963 7.98396 143.827 8.27196C144.691 8.55996 145.387 8.95596 145.915 9.45996C146.443 9.93996 146.827 10.504 147.067 11.152C147.307 11.8 147.427 12.496 147.427 13.24C147.427 14.344 147.199 15.28 146.743 16.048C146.311 16.816 145.735 17.464 145.015 17.992C144.319 18.496 143.539 18.892 142.675 19.18C141.811 19.468 140.959 19.696 140.119 19.864C139.279 20.008 138.499 20.104 137.779 20.152C137.083 20.176 136.543 20.188 136.159 20.188C136.159 20.644 136.219 21.1 136.339 21.556C136.483 21.988 136.687 22.372 136.951 22.708C137.215 23.044 137.563 23.32 137.995 23.536C138.427 23.752 138.955 23.86 139.579 23.86C140.203 23.86 140.683 23.764 141.019 23.572C141.379 23.356 141.667 23.128 141.883 22.888C142.099 22.624 142.279 22.396 142.423 22.204C142.591 21.988 142.807 21.88 143.071 21.88C143.191 21.88 143.395 21.916 143.683 21.988C143.995 22.036 144.307 22.156 144.619 22.348C144.931 22.54 145.207 22.804 145.447 23.14C145.687 23.476 145.807 23.908 145.807 24.436C145.807 25.132 145.591 25.732 145.159 26.236C144.727 26.74 144.163 27.148 143.467 27.46C142.795 27.772 142.039 28 141.199 28.144C140.359 28.288 139.543 28.36 138.751 28.36ZM139.435 12.628C138.907 12.628 138.451 12.784 138.067 13.096C137.707 13.384 137.395 13.756 137.131 14.212C136.891 14.668 136.699 15.172 136.555 15.724C136.435 16.276 136.339 16.804 136.267 17.308C137.755 17.284 138.955 17.032 139.867 16.552C140.803 16.072 141.271 15.388 141.271 14.5C141.271 14.02 141.115 13.588 140.803 13.204C140.515 12.82 140.059 12.628 139.435 12.628Z" fill="white"/>
<path d="M12.384 50.0239C11.808 50.8879 11.072 51.6079 10.176 52.1999C9.60001 51.6719 8.64001 51.0479 7.77601 50.5679C8.08 50.3919 8.35201 50.2159 8.62401 50.0239H12.384ZM10.144 44.2159C9.53601 44.8879 8.8 45.4959 7.93601 46.0239C7.40801 45.5759 6.52801 45.0479 5.728 44.6319C5.93601 44.4879 6.12801 44.3599 6.32 44.2159H10.144ZM13.76 48.3599L13.44 48.4399H10.576C10.928 48.1039 11.264 47.7519 11.568 47.3839L9.64801 46.9359C11.008 45.9439 12.16 44.7439 12.944 43.2719L11.728 42.5679L11.408 42.6479H8.208C8.48001 42.3759 8.736 42.1039 8.97601 41.8319L6.912 41.3999C5.808 42.7119 3.84001 44.0559 1.008 44.9519C1.424 45.2719 2.016 45.9279 2.288 46.3599C2.94401 46.1039 3.55201 45.8319 4.12801 45.5279C4.86401 45.9279 5.68001 46.4559 6.27201 46.9039C4.624 47.6559 2.752 48.1839 0.880005 48.4879C1.216 48.9039 1.584 49.6399 1.76 50.1199C4.41601 49.5919 7.04001 48.6639 9.184 47.2559C7.90401 48.6479 5.728 50.0239 2.656 50.9519C3.05601 51.2719 3.6 51.9759 3.824 52.4239C4.64001 52.1359 5.40801 51.8159 6.11201 51.4639C6.912 51.9439 7.85601 52.5999 8.46401 53.1439C6.67201 53.9439 4.52801 54.4239 2.224 54.6639C2.512 55.1119 2.88 55.8799 3.024 56.4079C8.512 55.6559 13.104 53.7679 15.04 49.0159L13.76 48.3599Z" fill="white"/>
<path d="M22.272 49.9919C22 49.5599 20.848 47.7999 20.416 47.2079V46.5039H22.016V44.7439H20.416V41.4479H18.688V44.7439H16.768V46.5039H18.544C18.144 48.3919 17.296 50.6159 16.4 51.8639C16.672 52.2959 17.056 53.0159 17.232 53.5439C17.776 52.7439 18.272 51.6239 18.688 50.3919V56.3759H20.416V49.4799C20.768 50.1679 21.104 50.8879 21.296 51.3519L22.272 49.9919ZM25.168 51.9759C23.808 52.6799 22.4 53.3999 21.456 53.8319L22.272 55.4319C23.296 54.8719 24.544 54.1679 25.664 53.5119L25.168 51.9759ZM22.368 50.2319C22.944 50.8559 23.6 51.7199 23.888 52.2799L25.248 51.3199C24.928 50.7759 24.256 49.9599 23.664 49.3839L22.368 50.2319ZM29.872 49.3359C29.504 49.8639 28.88 50.5359 28.32 51.0639C28.064 50.6159 27.84 50.1519 27.664 49.6559V49.0319H31.392V47.4799H27.664V46.7759H30.768V45.3519H27.664V44.7119H31.104V43.2239H29.552C29.808 42.8239 30.096 42.3439 30.384 41.8639L28.496 41.4319C28.336 41.9439 28.016 42.6799 27.776 43.2239H25.792C25.632 42.7439 25.248 42.0239 24.88 41.4639L23.376 41.9759C23.6 42.3599 23.84 42.8079 24 43.2239H22.368V44.7119H25.824V45.3519H22.8V46.7759H25.824V47.4799H22.064V49.0319H25.824V54.4879C25.824 54.6799 25.76 54.7599 25.568 54.7599C25.376 54.7599 24.752 54.7599 24.208 54.7279C24.448 55.1919 24.656 55.9279 24.72 56.4239C25.712 56.4239 26.464 56.3759 26.992 56.1039C27.504 55.8159 27.664 55.3679 27.664 54.5039V52.8399C28.384 54.0399 29.328 55.0159 30.496 55.6559C30.768 55.1759 31.296 54.4719 31.696 54.1199C30.72 53.7199 29.888 53.0959 29.2 52.3119C29.824 51.7999 30.64 51.0479 31.312 50.3439L29.872 49.3359Z" fill="white"/>
<path d="M39.552 42.1199L37.344 41.8959C37.312 42.7279 37.136 43.6879 36.912 44.5679C36.416 44.6159 35.936 44.6319 35.456 44.6319C34.864 44.6319 34.016 44.5999 33.328 44.5199L33.472 46.3759C34.16 46.4239 34.816 46.4399 35.472 46.4399C35.744 46.4399 36.016 46.4399 36.304 46.4239C35.6 48.1519 34.304 50.5039 33.04 52.0719L34.976 53.0639C36.272 51.2559 37.632 48.4559 38.4 46.2159C39.472 46.0559 40.464 45.8479 41.2 45.6559L41.136 43.7999C40.512 43.9919 39.76 44.1679 38.976 44.3119C39.216 43.4479 39.424 42.6319 39.552 42.1199ZM38.72 53.1919C38.72 52.6319 39.312 52.2159 40.24 52.2159C40.688 52.2159 41.12 52.2799 41.536 52.3759C41.536 52.5039 41.536 52.5999 41.536 52.6959C41.536 53.5759 41.2 54.1839 40.096 54.1839C39.216 54.1839 38.72 53.7839 38.72 53.1919ZM43.296 47.0959H41.296C41.328 48.0719 41.408 49.4959 41.472 50.6799C41.104 50.6479 40.752 50.6159 40.368 50.6159C38.144 50.6159 36.832 51.8159 36.832 53.3839C36.832 55.1439 38.4 56.0239 40.384 56.0239C42.656 56.0239 43.472 54.8719 43.472 53.3839C43.472 53.3359 43.472 53.2719 43.472 53.2239C44.352 53.7519 45.072 54.4239 45.632 54.9359L46.704 53.2239C45.888 52.4879 44.768 51.6879 43.392 51.1759C43.36 50.3759 43.312 49.6079 43.296 49.1439C43.28 48.4399 43.248 47.7679 43.296 47.0959ZM46.048 47.9439L47.184 46.2639C46.368 45.6719 44.384 44.5839 43.232 44.0879L42.208 45.6719C43.296 46.1679 45.12 47.2079 46.048 47.9439Z" fill="white"/>
<path d="M51.568 42.7279V44.7919C52.032 44.7599 52.72 44.7439 53.232 44.7439H59.36C59.936 44.7439 60.688 44.7599 61.12 44.7919V42.7279C60.672 42.7919 59.888 42.8079 59.392 42.8079H53.232C52.688 42.8079 52.016 42.7919 51.568 42.7279ZM62.464 47.3679L61.04 46.4879C60.816 46.5839 60.384 46.6479 59.872 46.6479H51.952C51.456 46.6479 50.768 46.5999 50.096 46.5519V48.6319C50.768 48.5679 51.568 48.5519 51.952 48.5519H59.68C59.392 49.4479 58.896 50.4399 58.032 51.3199C56.816 52.5679 54.896 53.6239 52.496 54.1199L54.08 55.9279C56.128 55.3519 58.176 54.2639 59.792 52.4719C60.992 51.1439 61.68 49.5919 62.16 48.0399C62.224 47.8639 62.352 47.5759 62.464 47.3679Z" fill="white"/>
<path d="M64.992 48.7759L66 50.7919C67.968 50.2159 70 49.3519 71.648 48.4879V53.6079C71.648 54.3119 71.6 55.3199 71.536 55.7039H74.064C73.952 55.3039 73.92 54.3119 73.92 53.6079V47.1439C75.472 46.1199 77.008 44.8719 78.224 43.6719L76.496 42.0239C75.456 43.2879 73.632 44.8879 71.984 45.9119C70.208 46.9999 67.856 48.0399 64.992 48.7759Z" fill="white"/>
<path d="M94.224 44.3439L92.656 43.3359C92.224 43.4479 91.712 43.4639 91.392 43.4639H84C83.472 43.4639 82.56 43.3839 82.08 43.3359V45.5919C82.496 45.5599 83.264 45.5279 83.984 45.5279H91.44C91.232 46.8879 90.624 48.7119 89.568 50.0399C88.272 51.6559 86.464 53.0479 83.296 53.7999L85.04 55.7039C87.888 54.7919 90.016 53.2079 91.472 51.2879C92.8 49.5119 93.504 47.0319 93.872 45.4639C93.952 45.1279 94.08 44.6639 94.224 44.3439Z" fill="white"/>
<path d="M109.344 44.1519L108.032 43.1759C107.712 43.2879 107.072 43.3839 106.384 43.3839H100.736C100.256 43.3839 99.28 43.3359 98.848 43.2719V45.5439C99.184 45.5279 100.064 45.4319 100.736 45.4319H106.16C105.808 46.5679 104.832 48.1519 103.776 49.3519C102.272 51.0319 99.792 52.9839 97.216 53.9439L98.864 55.6719C101.056 54.6319 103.184 52.9679 104.88 51.1759C106.384 52.6319 107.872 54.2639 108.912 55.7039L110.736 54.1199C109.792 52.9679 107.856 50.9199 106.272 49.5439C107.344 48.1039 108.24 46.3919 108.784 45.1439C108.928 44.8239 109.216 44.3279 109.344 44.1519Z" fill="white"/>
<path d="M117.024 53.4639C117.024 54.1039 116.96 55.0639 116.864 55.7039H119.36C119.296 55.0479 119.216 53.9279 119.216 53.4639V48.9359C120.944 49.5279 123.344 50.4559 124.992 51.3199L125.904 49.1119C124.432 48.3919 121.36 47.2559 119.216 46.6319V44.2639C119.216 43.6079 119.296 42.9039 119.36 42.3439H116.864C116.976 42.9039 117.024 43.7039 117.024 44.2639V53.4639Z" fill="white"/>
<path d="M129.472 47.5919V50.1039C130.064 50.0559 131.136 50.0239 132.048 50.0239H140.64C141.312 50.0239 142.128 50.0879 142.512 50.1039V47.5919C142.096 47.6239 141.392 47.6879 140.64 47.6879H132.048C131.216 47.6879 130.048 47.6399 129.472 47.5919Z" fill="white"/>
<path d="M156.848 42.5839H154.432C154.496 43.0319 154.528 43.5439 154.528 44.1839V47.2239C154.528 49.7199 154.32 50.9199 153.216 52.1199C152.256 53.1599 150.96 53.7679 149.376 54.1359L151.04 55.8959C152.208 55.5279 153.872 54.7439 154.928 53.5919C156.112 52.2799 156.784 50.7919 156.784 47.3519V44.1839C156.784 43.5439 156.816 43.0319 156.848 42.5839ZM149.424 42.7119H147.12C147.168 43.0799 147.184 43.6399 147.184 43.9439V49.3359C147.184 49.8159 147.12 50.4399 147.104 50.7439H149.424C149.392 50.3759 149.376 49.7519 149.376 49.3519V43.9439C149.376 43.4319 149.392 43.0799 149.424 42.7119Z" fill="white"/>
<path d="M161.472 47.5919V50.1039C162.064 50.0559 163.136 50.0239 164.048 50.0239H172.64C173.312 50.0239 174.128 50.0879 174.512 50.1039V47.5919C174.096 47.6239 173.392 47.6879 172.64 47.6879H164.048C163.216 47.6879 162.048 47.6399 161.472 47.5919Z" fill="white"/>
<path d="M183.168 43.8159V45.8639C185.184 46.0559 188.08 46.0399 190.048 45.8639V43.7999C188.32 44.0079 185.136 44.0879 183.168 43.8159ZM184.448 50.6479L182.608 50.4719C182.432 51.2879 182.336 51.9279 182.336 52.5519C182.336 54.1999 183.664 55.1759 186.416 55.1759C188.224 55.1759 189.504 55.0639 190.544 54.8719L190.512 52.7119C189.104 52.9999 187.92 53.1279 186.496 53.1279C184.864 53.1279 184.256 52.6959 184.256 51.9919C184.256 51.5599 184.32 51.1759 184.448 50.6479ZM180.704 42.7439L178.464 42.5519C178.448 43.0639 178.352 43.6719 178.304 44.1199C178.128 45.3519 177.632 48.0559 177.632 50.4559C177.632 52.6319 177.936 54.5839 178.256 55.6879L180.112 55.5599C180.096 55.3359 180.08 55.0799 180.08 54.9039C180.08 54.7439 180.112 54.3919 180.16 54.1519C180.336 53.3039 180.864 51.5599 181.312 50.2319L180.32 49.4479C180.096 49.9759 179.84 50.5359 179.6 51.0799C179.552 50.7599 179.536 50.3439 179.536 50.0399C179.536 48.4399 180.096 45.2399 180.304 44.1679C180.368 43.8799 180.576 43.0799 180.704 42.7439Z" fill="white"/>
<path d="M204.448 49.6079V53.5919H200.88V48.7599H205.792V42.9519H203.792V46.9039H200.88V41.6079H198.928V46.9039H196.176V42.9519H194.288V48.7599H198.928V53.5919H195.584V49.6079H193.648V56.3919H195.584V55.4639H204.448V56.3759H206.432V49.6079H204.448Z" fill="white"/>
<path d="M213.056 46.2479C214.272 45.3039 215.296 44.2639 215.984 43.2879C216.72 44.2799 217.824 45.3199 219.056 46.2479H213.056ZM212.272 47.9919H219.744V46.7279C220.624 47.3359 221.552 47.8639 222.432 48.2799C222.768 47.7199 223.184 47.0319 223.664 46.5359C221.136 45.6399 218.592 43.8159 216.896 41.4639H214.912C213.712 43.3519 211.168 45.6239 208.448 46.8239C208.848 47.2399 209.344 47.9599 209.568 48.4239C210.496 47.9759 211.424 47.4319 212.272 46.8239V47.9919ZM209.44 51.0799H213.152C212.816 52.0239 212.368 53.0799 211.936 53.9759L209.52 54.0559L209.776 55.9119C212.496 55.7839 216.448 55.6239 220.208 55.4159C220.464 55.7679 220.688 56.1039 220.848 56.4079L222.624 55.3359C221.872 54.1359 220.384 52.4719 218.96 51.2239L217.28 52.1039C217.808 52.5839 218.352 53.1599 218.848 53.7359C217.216 53.7999 215.568 53.8639 214.032 53.9119C214.512 53.0159 215.04 52.0239 215.504 51.0799H222.672V49.3199H209.44V51.0799Z" fill="white"/>
<path d="M234.96 49.7679C234.96 52.2639 232.4 53.5759 228.432 54.0239L229.584 56.0079C234.032 55.3999 237.2 53.2719 237.2 49.8479C237.2 47.3359 235.424 45.8959 232.896 45.8959C231.024 45.8959 229.232 46.3599 228.064 46.6319C227.536 46.7439 226.848 46.8559 226.304 46.9039L226.912 49.1919C227.376 49.0159 228 48.7599 228.464 48.6319C229.28 48.3919 230.864 47.8479 232.624 47.8479C234.128 47.8479 234.96 48.7119 234.96 49.7679ZM228.672 42.0879L228.352 44.0079C230.192 44.3279 233.664 44.6479 235.536 44.7759L235.856 42.8079C234.16 42.7919 230.528 42.4879 228.672 42.0879Z" fill="white"/>
<path d="M252.624 43.9279H248.496V43.1599H252.624V43.9279ZM252.624 45.9439H248.496V45.1759H252.624V45.9439ZM254.384 41.8479H246.816V47.2559H254.384V41.8479ZM255.472 49.4639V47.8639H245.408V49.4639H247.216C246.816 50.0879 246.32 50.6639 245.744 51.1599L245.408 49.7999L244.128 50.3599V46.5839H245.632V44.7919H244.128V41.6399H242.368V44.7919H240.768V46.5839H242.368V51.0959C241.616 51.3999 240.944 51.6719 240.4 51.8799L241.104 53.7999C242.08 53.3199 243.232 52.7439 244.384 52.1679C244.784 52.4239 245.392 52.9839 245.632 53.2879C246.288 52.8719 246.912 52.3439 247.504 51.7199H248.448C247.6 52.9039 246.368 54.0239 245.184 54.6159C245.632 54.8879 246.128 55.3679 246.432 55.7359C247.824 54.8559 249.312 53.2559 250.176 51.7199H251.12C250.432 53.2079 249.36 54.6319 248.144 55.3999C248.624 55.6559 249.168 56.0879 249.488 56.4559C250.784 55.4479 252.032 53.5119 252.688 51.7199H253.312C253.136 53.6559 252.944 54.4719 252.72 54.7119C252.592 54.8559 252.464 54.8879 252.24 54.8879C252.032 54.8879 251.616 54.8879 251.104 54.8399C251.344 55.2399 251.504 55.8799 251.536 56.3279C252.176 56.3599 252.784 56.3439 253.152 56.2959C253.552 56.2479 253.904 56.1199 254.208 55.7519C254.64 55.2879 254.896 54.0079 255.12 50.8879C255.136 50.6639 255.152 50.2319 255.152 50.2319H248.656C248.816 49.9759 248.976 49.7199 249.104 49.4639H255.472Z" fill="white"/>
<path d="M263.952 42.2319H256.88V43.9599H263.952V42.2319ZM261.792 46.8559V48.8879H259.216V46.8559H261.792ZM263.616 50.5999V45.1599H257.392V49.2239C257.392 51.0639 257.312 53.5599 256.256 55.2719C256.672 55.4959 257.456 56.0879 257.76 56.4079C258.752 54.8399 259.088 52.5519 259.184 50.5999H263.616ZM271.504 46.8399H266.368V44.7599C268.096 44.3439 269.936 43.7519 271.408 43.0479L269.728 41.6079C268.8 42.1679 267.312 42.7439 265.824 43.1759L264.512 42.8719V47.2879C264.512 49.6559 264.288 52.8239 262.064 55.0799C262.512 55.3039 263.216 55.9599 263.472 56.3599C265.6 54.2319 266.192 51.1279 266.336 48.6799H268.192V56.3919H270.08V48.6799H271.504V46.8399Z" fill="white"/>
<path d="M164.58 28C163.212 28 162.24 27.736 161.664 27.208C161.112 26.656 160.836 25.852 160.836 24.796C160.836 24.508 160.848 24.028 160.872 23.356C160.92 22.66 160.98 21.844 161.052 20.908C161.124 19.972 161.196 18.952 161.268 17.848C161.364 16.72 161.46 15.58 161.556 14.428C161.748 12.004 161.88 10.036 161.952 8.52396C162.048 7.01196 162.12 5.82396 162.168 4.95996C162.24 3.87995 162.312 3.19596 162.384 2.90796C162.456 2.59596 162.612 2.43996 162.852 2.43996C163.596 2.43996 164.352 2.42796 165.12 2.40396C165.912 2.35596 166.668 2.30795 167.388 2.25996C168.108 2.21196 168.78 2.17596 169.404 2.15196C170.052 2.10396 170.628 2.07996 171.132 2.07996C172.668 2.07996 173.988 2.27196 175.092 2.65596C176.196 3.03996 177.084 3.57996 177.756 4.27596C178.452 4.97196 178.956 5.81196 179.268 6.79596C179.604 7.77996 179.772 8.88396 179.772 10.108C179.772 11.98 179.4 13.648 178.656 15.112C177.912 16.576 176.724 17.692 175.092 18.46L178.116 22.78C178.668 23.596 179.088 24.232 179.376 24.688C179.664 25.12 179.808 25.444 179.808 25.66C179.808 25.828 179.7 26.068 179.484 26.38C179.292 26.668 178.992 26.968 178.584 27.28C178.2 27.568 177.72 27.82 177.144 28.036C176.592 28.252 175.968 28.36 175.272 28.36C174.504 28.36 173.832 28.108 173.256 27.604C172.704 27.1 172.2 26.44 171.744 25.624C171.312 24.784 170.928 23.824 170.592 22.744C170.28 21.664 169.98 20.536 169.692 19.36C168.828 19.312 168.12 19.228 167.568 19.108C167.496 20.164 167.424 21.172 167.352 22.132C167.28 23.092 167.22 23.956 167.172 24.724C167.124 25.468 167.076 26.092 167.028 26.596C166.98 27.076 166.956 27.364 166.956 27.46C166.932 27.652 166.884 27.796 166.812 27.892C166.74 27.964 166.596 28 166.38 28H164.58ZM170.412 7.47995C170.124 7.47995 169.8 7.50396 169.44 7.55196C169.08 7.57596 168.696 7.61196 168.288 7.65996C168.24 8.49996 168.18 9.50796 168.108 10.684C168.06 11.836 167.988 13.072 167.892 14.392C168.732 14.584 169.464 14.68 170.088 14.68C170.832 14.68 171.432 14.536 171.888 14.248C172.368 13.96 172.74 13.612 173.004 13.204C173.268 12.772 173.436 12.316 173.508 11.836C173.604 11.356 173.652 10.924 173.652 10.54C173.652 9.55596 173.412 8.79996 172.932 8.27196C172.452 7.74396 171.612 7.47995 170.412 7.47995Z" fill="white"/>
<path d="M181.435 23.572C181.435 21.412 182.407 19.72 184.351 18.496C186.295 17.272 189.163 16.612 192.955 16.516C192.979 16.252 192.991 16.036 192.991 15.868C193.015 15.676 193.027 15.448 193.027 15.184C193.027 14.416 192.883 13.804 192.595 13.348C192.307 12.892 191.707 12.664 190.795 12.664C190.291 12.664 189.883 12.736 189.571 12.88C189.259 13.024 189.007 13.228 188.815 13.492C188.623 13.732 188.467 14.032 188.347 14.392C188.227 14.752 188.119 15.148 188.023 15.58C187.975 15.796 187.867 15.94 187.699 16.012C187.531 16.06 187.267 16.084 186.907 16.084C184.459 16.084 183.235 15.16 183.235 13.312C183.235 12.568 183.403 11.86 183.739 11.188C184.099 10.516 184.615 9.93996 185.287 9.45996C185.983 8.95596 186.847 8.55996 187.879 8.27196C188.911 7.98396 190.111 7.83996 191.479 7.83996C194.143 7.83996 196.075 8.39196 197.275 9.49596C198.475 10.6 199.075 12.16 199.075 14.176C199.075 14.44 199.039 14.92 198.967 15.616C198.919 16.288 198.847 17.008 198.751 17.776C198.679 18.52 198.607 19.228 198.535 19.9C198.487 20.572 198.463 21.04 198.463 21.304C198.463 21.904 198.571 22.336 198.787 22.6C199.003 22.84 199.243 23.008 199.507 23.104C199.795 23.2 200.047 23.272 200.263 23.32C200.479 23.368 200.587 23.488 200.587 23.68C200.587 24.208 200.515 24.748 200.371 25.3C200.227 25.852 199.987 26.356 199.651 26.812C199.339 27.268 198.895 27.64 198.319 27.928C197.767 28.216 197.083 28.36 196.267 28.36C195.115 28.36 194.251 28.084 193.675 27.532C193.099 26.98 192.715 26.212 192.523 25.228C191.947 26.068 191.191 26.8 190.255 27.424C189.343 28.048 188.143 28.36 186.655 28.36C185.935 28.36 185.251 28.276 184.603 28.108C183.979 27.94 183.427 27.664 182.947 27.28C182.491 26.896 182.119 26.404 181.831 25.804C181.567 25.18 181.435 24.436 181.435 23.572ZM192.631 19.468C192.007 19.468 191.395 19.516 190.795 19.612C190.195 19.708 189.655 19.864 189.175 20.08C188.719 20.272 188.347 20.536 188.059 20.872C187.771 21.208 187.627 21.616 187.627 22.096C187.627 22.648 187.795 23.032 188.131 23.248C188.491 23.464 188.875 23.572 189.283 23.572C189.667 23.572 190.051 23.488 190.435 23.32C190.819 23.152 191.155 22.9 191.443 22.564C191.755 22.204 192.019 21.772 192.235 21.268C192.451 20.764 192.583 20.164 192.631 19.468Z" fill="white"/>
<path d="M209.208 28.36C208.272 28.36 207.372 28.192 206.508 27.856C205.668 27.52 204.924 26.992 204.276 26.272C203.652 25.552 203.148 24.64 202.764 23.536C202.404 22.432 202.224 21.1 202.224 19.54C202.224 18.844 202.272 18.076 202.368 17.236C202.464 16.372 202.632 15.508 202.872 14.644C203.112 13.78 203.448 12.94 203.88 12.124C204.312 11.308 204.852 10.588 205.5 9.96396C206.172 9.31596 206.964 8.79996 207.876 8.41596C208.812 8.03196 209.904 7.83996 211.152 7.83996C212.352 7.83996 213.312 8.05596 214.032 8.48796C214.776 8.89596 215.244 9.61596 215.436 10.648C215.484 9.71196 215.532 8.89596 215.58 8.19996C215.628 7.50395 215.664 6.85596 215.688 6.25596C215.736 5.65596 215.784 5.05596 215.832 4.45596C215.88 3.85596 215.928 3.17196 215.976 2.40396C216 1.87596 216.06 1.56396 216.156 1.46796C216.204 1.41996 216.264 1.39596 216.336 1.39596C216.408 1.37196 216.54 1.35996 216.732 1.35996H218.136C218.856 1.35996 219.456 1.44396 219.936 1.61196C220.416 1.77996 220.8 2.00796 221.088 2.29596C221.376 2.58396 221.58 2.91996 221.7 3.30396C221.82 3.66396 221.88 4.04796 221.88 4.45596C221.88 4.45596 221.856 4.75596 221.808 5.35596C221.76 5.95596 221.7 6.75996 221.628 7.76796C221.556 8.75196 221.472 9.87996 221.376 11.152C221.28 12.424 221.184 13.744 221.088 15.112C220.992 16.456 220.896 17.8 220.8 19.144C220.704 20.464 220.608 21.688 220.512 22.816C220.416 23.92 220.332 24.88 220.26 25.696C220.212 26.488 220.176 27.016 220.152 27.28C220.104 27.568 220.044 27.76 219.972 27.856C219.9 27.952 219.696 28 219.36 28H218.064C217.56 28 217.08 27.964 216.624 27.892C216.192 27.796 215.808 27.652 215.472 27.46C215.16 27.244 214.908 26.968 214.716 26.632C214.548 26.272 214.464 25.816 214.464 25.264C214.032 26.176 213.372 26.92 212.484 27.496C211.62 28.072 210.528 28.36 209.208 28.36ZM212.34 12.628C211.116 12.628 210.204 13.168 209.604 14.248C209.028 15.304 208.74 16.732 208.74 18.532C208.74 19.156 208.776 19.768 208.848 20.368C208.944 20.968 209.1 21.508 209.316 21.988C209.532 22.468 209.82 22.852 210.18 23.14C210.564 23.428 211.044 23.572 211.62 23.572C212.652 23.572 213.516 23.068 214.212 22.06C214.908 21.052 215.256 19.468 215.256 17.308C215.256 16.708 215.22 16.132 215.148 15.58C215.076 15.004 214.932 14.5 214.716 14.068C214.5 13.636 214.2 13.288 213.816 13.024C213.432 12.76 212.94 12.628 212.34 12.628Z" fill="white"/>
<path d="M228.05 28C227.306 28 226.694 27.928 226.214 27.784C225.758 27.616 225.386 27.388 225.098 27.1C224.834 26.812 224.642 26.464 224.522 26.056C224.426 25.624 224.378 25.132 224.378 24.58C224.378 24.22 224.39 23.716 224.414 23.068C224.462 22.396 224.534 21.484 224.63 20.332C224.726 19.156 224.834 17.68 224.954 15.904C225.098 14.104 225.266 11.884 225.458 9.24396C225.482 8.71596 225.542 8.40396 225.638 8.30796C225.71 8.23596 225.902 8.19996 226.214 8.19996H227.618C228.362 8.19996 228.962 8.27196 229.418 8.41596C229.898 8.55996 230.27 8.77596 230.534 9.06396C230.822 9.35196 231.014 9.69996 231.11 10.108C231.23 10.516 231.29 10.972 231.29 11.476C231.29 11.836 231.266 12.376 231.218 13.096C231.17 13.816 231.098 14.8 231.002 16.048C230.93 17.272 230.822 18.808 230.678 20.656C230.534 22.48 230.354 24.688 230.138 27.28C230.114 27.568 230.054 27.76 229.958 27.856C229.862 27.952 229.658 28 229.346 28H228.05ZM225.494 3.95196C225.494 2.99196 225.842 2.23596 226.538 1.68396C227.234 1.13196 228.17 0.855957 229.346 0.855957C230.378 0.855957 231.122 1.07196 231.578 1.50395C232.058 1.91196 232.298 2.46396 232.298 3.15996C232.298 4.04796 231.962 4.79196 231.29 5.39196C230.642 5.96796 229.682 6.25596 228.41 6.25596C226.466 6.25596 225.494 5.48796 225.494 3.95196Z" fill="white"/>
<path d="M242.351 28.36C240.695 28.36 239.315 28.132 238.211 27.676C237.131 27.196 236.267 26.548 235.619 25.732C234.971 24.916 234.515 23.968 234.251 22.888C233.987 21.784 233.855 20.608 233.855 19.36C233.855 17.92 234.023 16.516 234.359 15.148C234.719 13.756 235.319 12.52 236.159 11.44C236.999 10.36 238.103 9.49596 239.471 8.84796C240.863 8.17596 242.591 7.83996 244.655 7.83996C247.679 7.83996 249.839 8.58396 251.135 10.072C252.455 11.536 253.115 13.6 253.115 16.264C253.115 17.008 253.055 17.836 252.935 18.748C252.839 19.636 252.635 20.524 252.323 21.412C252.035 22.3 251.627 23.164 251.099 24.004C250.595 24.844 249.947 25.588 249.155 26.236C248.363 26.884 247.403 27.4 246.275 27.784C245.171 28.168 243.863 28.36 242.351 28.36ZM244.043 12.628C243.131 12.628 242.399 12.868 241.847 13.348C241.319 13.804 240.911 14.368 240.623 15.04C240.359 15.688 240.179 16.384 240.083 17.128C240.011 17.848 239.975 18.46 239.975 18.964C239.975 20.548 240.227 21.712 240.731 22.456C241.235 23.2 241.955 23.572 242.891 23.572C243.731 23.572 244.415 23.308 244.943 22.78C245.495 22.252 245.915 21.616 246.203 20.872C246.515 20.128 246.719 19.348 246.815 18.532C246.935 17.716 246.995 17.032 246.995 16.48C246.995 15.28 246.767 14.344 246.311 13.672C245.879 12.976 245.123 12.628 244.043 12.628Z" fill="white"/>
</svg>
